<?xml version="1.0" encoding="UTF-8"?> <svg xmlns="http://www.w3.org/2000/svg" id="Layer_1" data-name="Layer 1" viewBox="0 0 1213.62068 619.31253"><defs><style> .cls-1 { fill: #e9e2f2; } .cls-1, .cls-2, .cls-3, .cls-4, .cls-5, .cls-6, .cls-7, .cls-8 { stroke: #000; stroke-miterlimit: 10; } .cls-2, .cls-4 { fill: none; } .cls-3 { fill: #fcf2e8; } .cls-9, .cls-10 { stroke-width: 0px; } .cls-4 { stroke-linecap: round; stroke-width: 2px; } .cls-10 { fill: #fff; } .cls-5 { fill: #fffae6; } .cls-6 { fill: #0667b8; } .cls-7 { fill: #ebffeb; } .cls-8 { fill: #d9ebff; } </style></defs><path class="cls-3" d="M.54321,64.972h808.6394v553.8417H7.38672c-3.77704,0-6.84351-3.06647-6.84351-6.84351V64.972h0Z"></path><path class="cls-5" d="M809.18261,64.972h403.93827v546.99866c0,3.77678-3.06627,6.84305-6.84305,6.84305h-397.09522V64.972h0Z"></path><ellipse class="cls-8" cx="404.67219" cy="376.22188" rx="362.55271" ry="227.71591"></ellipse><ellipse class="cls-7" cx="405.64447" cy="411.31378" rx="287.20087" ry="178.8924"></ellipse><ellipse class="cls-1" cx="404.06844" cy="451.36432" rx="208.67583" ry="128.92458"></ellipse><g><path class="cls-9" d="M284.61327,115.78273h-4.71191l-3.88086-6.5083c-.35059-.59863-.69238-1.10986-1.02539-1.53369-.3335-.42383-.67236-.771-1.01709-1.04248-.34473-.271-.72021-.46875-1.12695-.59326-.40674-.12402-.86426-.18604-1.37305-.18604h-1.62695v9.86377h-4.0166v-24.3042h7.99951c1.14111,0,2.19189.13574,3.15234.40674.96045.27148,1.79688.68115,2.5083,1.229.71191.54785,1.26855,1.23145,1.66943,2.05078s.60205,1.77686.60205,2.87256c0,.85889-.12744,1.64697-.38135,2.36426-.25439.71777-.61621,1.35596-1.08496,1.91553-.46875.55908-1.03369,1.03662-1.69482,1.43213s-1.40381.70068-2.22852.91504v.06787c.44043.24854.82471.52246,1.15234.82178.32764.2998.63818.60742.93213.92383s.58496.67529.87305,1.07617c.28809.40137.60693.86719.95752,1.39844l4.32178,6.83008ZM269.85106,94.74952v7.89795h3.35596c.62109,0,1.19482-.0957,1.72021-.28809.52539-.19189.97998-.46875,1.36426-.83008.38428-.36182.68359-.80225.89844-1.32227.21436-.51953.32178-1.10156.32178-1.74561,0-1.16357-.36719-2.07324-1.10156-2.72852s-1.79102-.9834-3.16943-.9834h-3.38965Z"></path><path class="cls-9" d="M300.32469,115.78273h-3.81348v-2.71191h-.06787c-1.19775,2.0791-2.95508,3.11865-5.271,3.11865-1.70605,0-3.04199-.46338-4.0083-1.38965-.96582-.92627-1.44922-2.15234-1.44922-3.67773,0-3.27686,1.88721-5.18652,5.66113-5.729l5.15234-.72852c0-2.47461-1.17529-3.71191-3.52539-3.71191-2.06787,0-3.93213.71191-5.59326,2.13574v-3.44043c1.83057-1.08496,3.94336-1.62744,6.33887-1.62744,4.38379,0,6.57617,2.15869,6.57617,6.47461v11.2876ZM296.5283,107.25782l-3.64404.5083c-1.12988.14697-1.98047.4209-2.55078.82178-.5708.40137-.85596,1.10498-.85596,2.11035,0,.73438.2627,1.33643.78809,1.80518s1.229.70312,2.10986.70312c1.19775,0,2.18945-.4209,2.97461-1.2627s1.17822-1.90088,1.17822-3.17773v-1.5083Z"></path><path class="cls-9" d="M314.27293,115.5962c-.76855.38428-1.77979.57617-3.03369.57617-3.36719,0-5.05078-1.61572-5.05078-4.84717v-9.81299h-2.89795v-3.08496h2.89795v-4.0166l3.93213-1.11865v5.13525h4.15234v3.08496h-4.15234v8.67773c0,1.02783.18652,1.76221.55908,2.20312.37305.44043.99414.66113,1.86426.66113.66699,0,1.24316-.19238,1.729-.57666v3.11865Z"></path><path class="cls-9" d="M319.64549,94.7837c-.64404,0-1.19482-.20898-1.65234-.62744-.45752-.41748-.68652-.94873-.68652-1.59277s.229-1.18066.68652-1.61035c.45752-.4292,1.0083-.64404,1.65234-.64404.66699,0,1.23145.21484,1.69482.64404.46338.42969.69531.96631.69531,1.61035,0,.60986-.23193,1.13281-.69531,1.56738-.46338.43506-1.02783.65283-1.69482.65283ZM321.59471,115.78273h-3.93213v-17.35547h3.93213v17.35547Z"></path><path class="cls-9" d="M334.42479,116.18946c-2.67773,0-4.81641-.81055-6.41504-2.43213-1.59912-1.62109-2.39844-3.771-2.39844-6.44873,0-2.91504.8335-5.19189,2.5-6.83057,1.6665-1.63818,3.91211-2.45752,6.7373-2.45752,2.71143,0,4.82422.79688,6.33838,2.39014,1.51416,1.59277,2.27148,3.80225,2.27148,6.62646,0,2.76855-.81689,4.98584-2.44922,6.65234-1.63281,1.66699-3.82764,2.5-6.58447,2.5ZM334.61131,101.15626c-1.53711,0-2.75146.53662-3.64404,1.60986-.89258,1.07373-1.33887,2.55371-1.33887,4.44092,0,1.81885.45166,3.25098,1.35596,4.29639.90381,1.04492,2.1123,1.56738,3.62695,1.56738,1.54785,0,2.73682-.51367,3.56738-1.54199s1.24561-2.4917,1.24561-4.38965c0-1.90967-.41504-3.38379-1.24561-4.42383-.83057-1.03906-2.01953-1.55908-3.56738-1.55908Z"></path><path class="cls-9" d="M362.91502,115.78273h-3.93213v-9.7793c0-3.24268-1.14697-4.86426-3.44043-4.86426-1.19775,0-2.18604.44922-2.96582,1.34766-.77979.89795-1.16943,2.03076-1.16943,3.39795v9.89795h-3.94922v-17.35547h3.94922v2.88135h.06787c1.29883-2.19189,3.1748-3.28809,5.62695-3.28809,1.88672,0,3.32715.61328,4.32178,1.83936.99414,1.22607,1.49121,2.99707,1.49121,5.31299v10.60986Z"></path><path class="cls-9" d="M381.03319,115.78273h-3.81348v-2.71191h-.06787c-1.19775,2.0791-2.95508,3.11865-5.271,3.11865-1.70605,0-3.04199-.46338-4.0083-1.38965-.96582-.92627-1.44922-2.15234-1.44922-3.67773,0-3.27686,1.88721-5.18652,5.66113-5.729l5.15234-.72852c0-2.47461-1.17529-3.71191-3.52539-3.71191-2.06787,0-3.93213.71191-5.59326,2.13574v-3.44043c1.83057-1.08496,3.94336-1.62744,6.33887-1.62744,4.38379,0,6.57617,2.15869,6.57617,6.47461v11.2876ZM377.2368,107.25782l-3.64404.5083c-1.12988.14697-1.98047.4209-2.55078.82178-.5708.40137-.85596,1.10498-.85596,2.11035,0,.73438.2627,1.33643.78809,1.80518s1.229.70312,2.10986.70312c1.19775,0,2.18945-.4209,2.97461-1.2627s1.17822-1.90088,1.17822-3.17773v-1.5083Z"></path><path class="cls-9" d="M389.7783,115.78273h-3.94922v-25.69385h3.94922v25.69385Z"></path><path class="cls-9" d="M425.48924,115.78273h-4.40674l-11.60986-17.86377c-.29395-.45166-.53662-.9209-.72852-1.40674h-.10205c.09033.52002.13574,1.63281.13574,3.33887v15.93164h-3.89795v-24.3042h4.69482l11.21973,17.43994c.47461.72314.77979,1.22021.91504,1.4917h.06787c-.11328-.64404-.16943-1.73438-.16943-3.271v-15.66064h3.88135v24.3042Z"></path><path class="cls-9" d="M446.20018,115.78273h-3.93213v-2.74561h-.06787c-1.14111,2.10156-2.91504,3.15234-5.32178,3.15234-4.10156,0-6.15234-2.46289-6.15234-7.38965v-10.37256h3.93213v9.96582c0,3.11865,1.20312,4.67773,3.60986,4.67773,1.16357,0,2.12109-.4292,2.87305-1.28809.75098-.8584,1.12695-1.98291,1.12695-3.37256v-9.98291h3.93213v17.35547Z"></path><path class="cls-9" d="M477.26659,115.78273h-3.93213v-9.45703c0-1.81934-.25684-3.13574-.771-3.94922s-1.38135-1.22021-2.60156-1.22021c-1.02832,0-1.90137.51416-2.61865,1.54248-.71777,1.02783-1.07617,2.25977-1.07617,3.69434v9.38965h-3.94922v-9.7793c0-3.23145-1.14111-4.84717-3.42334-4.84717-1.0625,0-1.93506.48584-2.61865,1.45752s-1.02539,2.23145-1.02539,3.7793v9.38965h-3.93213v-17.35547h3.93213v2.74609h.06787c1.25439-2.10205,3.07861-3.15283,5.47412-3.15283,1.19775,0,2.24609.33057,3.14404.9917.89844.66113,1.51123,1.52832,1.83887,2.60156,1.28809-2.39551,3.20898-3.59326,5.7627-3.59326,3.81885,0,5.72852,2.35596,5.72852,7.06787v10.69434Z"></path><path class="cls-9" d="M486.06248,113.27442h-.06787v2.5083h-3.93213v-25.69385h3.93213v11.38916h.06787c1.34424-2.30469,3.31055-3.45752,5.89795-3.45752,2.19189,0,3.90674.77734,5.14404,2.33057,1.2373,1.55371,1.85596,3.63574,1.85596,6.24561,0,2.90381-.69531,5.22852-2.08496,6.97412s-3.28809,2.61865-5.69434,2.61865c-2.26025,0-3.96631-.97168-5.11865-2.91504ZM485.96092,106.37648v2.15234c0,1.26562.40381,2.33887,1.21143,3.22021.80811.88135,1.8335,1.32178,3.07617,1.32178,1.45801,0,2.60156-.56738,3.43213-1.70312s1.24609-2.72021,1.24609-4.75391c0-1.70605-.38721-3.04248-1.16113-4.0083-.77393-.96631-1.82227-1.44922-3.14404-1.44922-1.40137,0-2.52832.49707-3.38135,1.49121-.85303.99463-1.2793,2.2373-1.2793,3.729Z"></path><path class="cls-9" d="M517.67137,108.17286h-11.83008c.04541,1.60449.53955,2.8418,1.4834,3.71191.94287.87012,2.23975,1.30469,3.88965,1.30469,1.85254,0,3.55322-.55322,5.10107-1.66064v3.16943c-1.58203.99414-3.67188,1.49121-6.27051,1.49121-2.55371,0-4.55664-.78809-6.0083-2.36426-1.45215-1.57617-2.17822-3.79346-2.17822-6.65234,0-2.7002.79932-4.90088,2.39844-6.60156,1.59863-1.7002,3.58447-2.55078,5.95752-2.55078,2.37256,0,4.2085.7627,5.5083,2.28809,1.29883,1.52539,1.94873,3.64404,1.94873,6.35596v1.5083ZM513.87498,105.39308c-.01123-1.41211-.34473-2.51074-1-3.29639-.65527-.78516-1.55908-1.17773-2.71143-1.17773-1.13037,0-2.08789.4126-2.87305,1.2373-.78564.82471-1.26855,1.90381-1.44922,3.23682h8.03369Z"></path><path class="cls-9" d="M531.48436,102.17335c-.47461-.37305-1.1582-.55957-2.05078-.55957-1.16357,0-2.13525.52539-2.91504,1.57617s-1.16943,2.48047-1.16943,4.28809v8.30469h-3.93213v-17.35547h3.93213v3.57617h.06787c.38379-1.22021.97461-2.17188,1.771-2.85547.79688-.68359,1.68652-1.02539,2.66943-1.02539.71191,0,1.25439.10742,1.62695.32178v3.729Z"></path><path class="cls-9" d="M533.39989,115.24024v-3.64355c1.46875,1.11816,3.09033,1.67773,4.86426,1.67773,2.37256,0,3.55908-.70068,3.55908-2.10156,0-.39551-.10156-.73145-.30518-1.00879-.20312-.27637-.47754-.52246-.82178-.73682-.34473-.21484-.75195-.40674-1.22021-.57666-.46924-.16943-.9917-.36133-1.56787-.57617-.71191-.28223-1.35352-.58154-1.92383-.89795-.5708-.31641-1.04541-.67529-1.42383-1.07666-.37842-.40088-.66357-.85547-.85547-1.36426-.19238-.5083-.28809-1.10156-.28809-1.7793,0-.83594.19727-1.57324.59277-2.21191.39551-.63818.92676-1.1748,1.59326-1.61035.6665-.43457,1.42383-.76221,2.271-.98291.84766-.22021,1.72314-.33057,2.62695-.33057,1.60449,0,3.03955.24316,4.30518.729v3.44043c-1.22021-.83594-2.62158-1.25391-4.20312-1.25391-.49756,0-.94678.05078-1.34766.15234s-.74316.24316-1.02539.42383-.50293.39795-.66064.65234c-.15869.25439-.2373.53418-.2373.83887,0,.37305.07861.68945.2373.94922.15771.26025.39209.48877.70312.68652.31055.19775.68359.37842,1.11865.54248.43457.16357.93457.3418,1.5.53369.74561.30518,1.41504.61572,2.0083.93213s1.09863.67529,1.51709,1.07617c.41748.40137.73975.86426.96582,1.38965s.33887,1.1499.33887,1.87305c0,.88135-.20312,1.6499-.60986,2.30518s-.94922,1.19775-1.62695,1.62695c-.67822.4292-1.46094.74854-2.34766.95752-.88721.20898-1.82178.31348-2.80469.31348-1.89844,0-3.54248-.31641-4.93213-.94922Z"></path></g><g><path class="cls-9" d="M869.1577,115.78321h-4.15234v-24.3042h4.15234v24.3042Z"></path><path class="cls-9" d="M884.76707,102.17384c-.47461-.37305-1.1582-.55957-2.05078-.55957-1.16357,0-2.13525.52539-2.91504,1.57617s-1.16943,2.48047-1.16943,4.28809v8.30469h-3.93213v-17.35547h3.93213v3.57617h.06787c.38379-1.22021.97461-2.17188,1.771-2.85547.79688-.68359,1.68652-1.02539,2.66943-1.02539.71191,0,1.25439.10742,1.62695.32178v3.729Z"></path><path class="cls-9" d="M897.61424,102.17384c-.47461-.37305-1.1582-.55957-2.05078-.55957-1.16357,0-2.13525.52539-2.91504,1.57617s-1.16943,2.48047-1.16943,4.28809v8.30469h-3.93213v-17.35547h3.93213v3.57617h.06787c.38379-1.22021.97461-2.17188,1.771-2.85547.79688-.68359,1.68652-1.02539,2.66943-1.02539.71191,0,1.25439.10742,1.62695.32178v3.729Z"></path><path class="cls-9" d="M913.71532,115.78321h-3.81348v-2.71191h-.06787c-1.19775,2.0791-2.95508,3.11865-5.271,3.11865-1.70605,0-3.04199-.46338-4.0083-1.38965-.96582-.92627-1.44922-2.15234-1.44922-3.67773,0-3.27686,1.88721-5.18652,5.66113-5.729l5.15234-.72852c0-2.47461-1.17529-3.71191-3.52539-3.71191-2.06787,0-3.93213.71191-5.59326,2.13574v-3.44043c1.83057-1.08496,3.94336-1.62744,6.33887-1.62744,4.38379,0,6.57617,2.15869,6.57617,6.47461v11.2876ZM909.91893,107.25831l-3.64404.5083c-1.12988.14697-1.98047.4209-2.55078.82178-.5708.40137-.85596,1.10498-.85596,2.11035,0,.73438.2627,1.33643.78809,1.80518s1.229.70312,2.10986.70312c1.19775,0,2.18945-.4209,2.97461-1.2627s1.17822-1.90088,1.17822-3.17773v-1.5083Z"></path><path class="cls-9" d="M927.66405,115.59669c-.76855.38428-1.77979.57617-3.03369.57617-3.36719,0-5.05078-1.61572-5.05078-4.84717v-9.81299h-2.89795v-3.08496h2.89795v-4.0166l3.93213-1.11865v5.13525h4.15234v3.08496h-4.15234v8.67773c0,1.02783.18652,1.76221.55908,2.20312.37305.44043.99414.66113,1.86426.66113.66699,0,1.24316-.19238,1.729-.57666v3.11865Z"></path><path class="cls-9" d="M933.03612,94.78419c-.64404,0-1.19482-.20898-1.65234-.62744-.45752-.41748-.68652-.94873-.68652-1.59277s.229-1.18066.68652-1.61035c.45752-.4292,1.0083-.64404,1.65234-.64404.66699,0,1.23145.21484,1.69482.64404.46338.42969.69531.96631.69531,1.61035,0,.60986-.23193,1.13281-.69531,1.56738-.46338.43506-1.02783.65283-1.69482.65283ZM934.98534,115.78321h-3.93213v-17.35547h3.93213v17.35547Z"></path><path class="cls-9" d="M947.81493,116.18995c-2.67773,0-4.81592-.81055-6.41455-2.43213-1.59912-1.62109-2.39844-3.771-2.39844-6.44873,0-2.91504.8335-5.19189,2.5-6.83057,1.6665-1.63818,3.9126-2.45752,6.73682-2.45752,2.71289,0,4.82422.79688,6.33984,2.39014,1.51367,1.59277,2.26953,3.80225,2.26953,6.62646,0,2.76855-.81641,4.98584-2.44922,6.65234-1.63281,1.66699-3.82617,2.5-6.58398,2.5ZM948.00243,101.15675c-1.53711,0-2.75195.53662-3.64453,1.60986-.89258,1.07373-1.33887,2.55371-1.33887,4.44092,0,1.81885.45166,3.25098,1.35645,4.29639.90234,1.04492,2.11133,1.56738,3.62695,1.56738,1.54688,0,2.73633-.51367,3.56641-1.54199.83203-1.02832,1.24609-2.4917,1.24609-4.38965,0-1.90967-.41406-3.38379-1.24609-4.42383-.83008-1.03906-2.01953-1.55908-3.56641-1.55908Z"></path><path class="cls-9" d="M976.30614,115.78321h-3.93262v-9.7793c0-3.24268-1.14648-4.86426-3.44043-4.86426-1.19727,0-2.18652.44922-2.96582,1.34766-.7793.89795-1.16992,2.03076-1.16992,3.39795v9.89795h-3.94824v-17.35547h3.94824v2.88135h.06836c1.29883-2.19189,3.1748-3.28809,5.62695-3.28809,1.88672,0,3.32715.61328,4.32129,1.83936s1.49219,2.99707,1.49219,5.31299v10.60986Z"></path><path class="cls-9" d="M994.4243,115.78321h-3.81348v-2.71191h-.06738c-1.19824,2.0791-2.95508,3.11865-5.27148,3.11865-1.70605,0-3.04199-.46338-4.00781-1.38965-.9668-.92627-1.44922-2.15234-1.44922-3.67773,0-3.27686,1.88672-5.18652,5.66016-5.729l5.15234-.72852c0-2.47461-1.1748-3.71191-3.52539-3.71191-2.06738,0-3.93164.71191-5.59277,2.13574v-3.44043c1.83105-1.08496,3.94336-1.62744,6.33887-1.62744,4.38379,0,6.57617,2.15869,6.57617,6.47461v11.2876ZM990.62743,107.25831l-3.64355.5083c-1.12988.14697-1.98047.4209-2.55078.82178-.57031.40137-.85547,1.10498-.85547,2.11035,0,.73438.2627,1.33643.78809,1.80518s1.22852.70312,2.10938.70312c1.19824,0,2.18945-.4209,2.97461-1.2627s1.17773-1.90088,1.17773-3.17773v-1.5083Z"></path><path class="cls-9" d="M1003.16844,115.78321h-3.94824v-25.69385h3.94824v25.69385Z"></path><path class="cls-9" d="M1038.87938,115.78321h-4.40723l-11.60938-17.86377c-.29395-.45166-.53711-.9209-.72852-1.40674h-.10156c.08984.52002.13574,1.63281.13574,3.33887v15.93164h-3.89844v-24.3042h4.69434l11.21973,17.43994c.47461.72314.78027,1.22021.91602,1.4917h.06738c-.11328-.64404-.16992-1.73438-.16992-3.271v-15.66064h3.88184v24.3042Z"></path><path class="cls-9" d="M1059.59129,115.78321h-3.93262v-2.74561h-.06738c-1.1416,2.10156-2.91504,3.15234-5.32227,3.15234-4.10059,0-6.15137-2.46289-6.15137-7.38965v-10.37256h3.93164v9.96582c0,3.11865,1.20312,4.67773,3.61035,4.67773,1.16309,0,2.12109-.4292,2.87207-1.28809.75195-.8584,1.12695-1.98291,1.12695-3.37256v-9.98291h3.93262v17.35547Z"></path><path class="cls-9" d="M1090.65672,115.78321h-3.93164v-9.45703c0-1.81934-.25684-3.13574-.77148-3.94922-.51367-.81348-1.38086-1.22021-2.60156-1.22021-1.02832,0-1.90039.51416-2.61816,1.54248-.71777,1.02783-1.07617,2.25977-1.07617,3.69434v9.38965h-3.94922v-9.7793c0-3.23145-1.1416-4.84717-3.42383-4.84717-1.06152,0-1.93457.48584-2.61816,1.45752s-1.02539,2.23145-1.02539,3.7793v9.38965h-3.93164v-17.35547h3.93164v2.74609h.06738c1.25488-2.10205,3.0791-3.15283,5.47461-3.15283,1.19727,0,2.24609.33057,3.14453.9917.89746.66113,1.51074,1.52832,1.83887,2.60156,1.28809-2.39551,3.20801-3.59326,5.76172-3.59326,3.81934,0,5.72852,2.35596,5.72852,7.06787v10.69434Z"></path><path class="cls-9" d="M1099.45262,113.27491h-.06738v2.5083h-3.93164v-25.69385h3.93164v11.38916h.06738c1.34473-2.30469,3.31055-3.45752,5.89844-3.45752,2.19238,0,3.90625.77734,5.14355,2.33057,1.2373,1.55371,1.85645,3.63574,1.85645,6.24561,0,2.90381-.69531,5.22852-2.08496,6.97412s-3.28809,2.61865-5.69434,2.61865c-2.25977,0-3.96582-.97168-5.11914-2.91504ZM1099.35106,106.37696v2.15234c0,1.26562.4043,2.33887,1.21191,3.22021s1.83301,1.32178,3.07617,1.32178c1.45801,0,2.60156-.56738,3.43262-1.70312.83008-1.13574,1.24512-2.72021,1.24512-4.75391,0-1.70605-.38672-3.04248-1.16113-4.0083-.77344-.96631-1.82129-1.44922-3.14355-1.44922-1.40137,0-2.52832.49707-3.38086,1.49121-.85352.99463-1.28027,2.2373-1.28027,3.729Z"></path><path class="cls-9" d="M1131.06297,108.17335h-11.83008c.04492,1.60449.53906,2.8418,1.48242,3.71191s2.24023,1.30469,3.88965,1.30469c1.85352,0,3.55371-.55322,5.10156-1.66064v3.16943c-1.58203.99414-3.67188,1.49121-6.27051,1.49121-2.55371,0-4.55664-.78809-6.00879-2.36426s-2.17773-3.79346-2.17773-6.65234c0-2.7002.7998-4.90088,2.39844-6.60156,1.59863-1.7002,3.58496-2.55078,5.95703-2.55078,2.37305,0,4.20898.7627,5.50879,2.28809,1.29883,1.52539,1.94922,3.64404,1.94922,6.35596v1.5083ZM1127.2661,105.39356c-.01172-1.41211-.34473-2.51074-1-3.29639-.65527-.78516-1.55957-1.17773-2.71191-1.17773-1.12988,0-2.08691.4126-2.87207,1.2373-.78613.82471-1.26855,1.90381-1.44922,3.23682h8.0332Z"></path><path class="cls-9" d="M1144.87547,102.17384c-.47461-.37305-1.1582-.55957-2.05078-.55957-1.16406,0-2.13574.52539-2.91504,1.57617-.78027,1.05078-1.16992,2.48047-1.16992,4.28809v8.30469h-3.93164v-17.35547h3.93164v3.57617h.06738c.38477-1.22021.97461-2.17188,1.77148-2.85547s1.68652-1.02539,2.66992-1.02539c.71094,0,1.25391.10742,1.62695.32178v3.729Z"></path><path class="cls-9" d="M1146.79051,115.24073v-3.64355c1.46875,1.11816,3.08984,1.67773,4.86426,1.67773,2.37305,0,3.55859-.70068,3.55859-2.10156,0-.39551-.10156-.73145-.30469-1.00879-.20312-.27637-.47754-.52246-.82227-.73682-.34473-.21484-.75098-.40674-1.21973-.57666-.46875-.16943-.99219-.36133-1.56836-.57617-.71191-.28223-1.35254-.58154-1.92285-.89795-.57129-.31641-1.0459-.67529-1.42383-1.07666-.37891-.40088-.66406-.85547-.85645-1.36426-.19238-.5083-.28809-1.10156-.28809-1.7793,0-.83594.19824-1.57324.59375-2.21191.39551-.63818.92578-1.1748,1.59277-1.61035.66699-.43457,1.42383-.76221,2.27148-.98291.84668-.22021,1.72266-.33057,2.62695-.33057,1.60449,0,3.03906.24316,4.30469.729v3.44043c-1.2207-.83594-2.62109-1.25391-4.20312-1.25391-.49707,0-.94629.05078-1.34766.15234s-.74316.24316-1.02539.42383-.50293.39795-.66113.65234-.2373.53418-.2373.83887c0,.37305.0791.68945.2373.94922.1582.26025.39258.48877.7041.68652.31055.19775.68262.37842,1.11816.54248.43457.16357.93457.3418,1.5.53369.74609.30518,1.41504.61572,2.00879.93213.59277.31641,1.09863.67529,1.5166,1.07617.41797.40137.73926.86426.96582,1.38965.22559.52539.33887,1.1499.33887,1.87305,0,.88135-.20312,1.6499-.61035,2.30518-.40625.65527-.94922,1.19775-1.62695,1.62695s-1.45996.74854-2.34668.95752c-.8877.20898-1.82227.31348-2.80566.31348-1.89844,0-3.54199-.31641-4.93164-.94922Z"></path></g><g><path class="cls-9" d="M347.72948,199.81007h-4.15234v-24.3042h4.15234v24.3042Z"></path><path class="cls-9" d="M368.7285,199.81007h-3.93213v-9.7793c0-3.24268-1.14697-4.86426-3.44043-4.86426-1.19775,0-2.18604.44922-2.96582,1.34766-.77979.89795-1.16943,2.03076-1.16943,3.39795v9.89795h-3.94922v-17.35547h3.94922v2.88135h.06787c1.29883-2.19189,3.1748-3.28809,5.62695-3.28809,1.88672,0,3.32715.61328,4.32178,1.83936.99414,1.22607,1.49121,2.99707,1.49121,5.31299v10.60986Z"></path><path class="cls-9" d="M382.67723,199.62355c-.76855.38428-1.77979.57617-3.03369.57617-3.36719,0-5.05078-1.61572-5.05078-4.84717v-9.81299h-2.89795v-3.08496h2.89795v-4.0166l3.93213-1.11865v5.13525h4.15234v3.08496h-4.15234v8.67773c0,1.02783.18652,1.76221.55908,2.20312.37305.44043.99414.66113,1.86426.66113.66699,0,1.24316-.19238,1.729-.57666v3.11865Z"></path><path class="cls-9" d="M400.5576,192.20021h-11.83008c.04541,1.60449.53955,2.8418,1.4834,3.71191.94287.87012,2.23975,1.30469,3.88965,1.30469,1.85254,0,3.55322-.55322,5.10107-1.66064v3.16943c-1.58203.99414-3.67188,1.49121-6.27051,1.49121-2.55371,0-4.55664-.78809-6.0083-2.36426-1.45215-1.57617-2.17822-3.79346-2.17822-6.65234,0-2.7002.79932-4.90088,2.39844-6.60156,1.59863-1.7002,3.58447-2.55078,5.95752-2.55078,2.37256,0,4.2085.7627,5.5083,2.28809,1.29883,1.52539,1.94873,3.64404,1.94873,6.35596v1.5083ZM396.76121,189.42042c-.01123-1.41211-.34473-2.51074-1-3.29639-.65527-.78516-1.55908-1.17773-2.71143-1.17773-1.13037,0-2.08789.4126-2.87305,1.2373-.78564.82471-1.26855,1.90381-1.44922,3.23682h8.03369Z"></path><path class="cls-9" d="M420.0991,198.42042c0,6.37256-3.20312,9.55859-9.60938,9.55859-2.26025,0-4.23193-.37842-5.91504-1.13525v-3.59326c1.89795,1.08496,3.7002,1.62695,5.40625,1.62695,4.12402,0,6.18652-2.02783,6.18652-6.08447v-1.89795h-.06787c-1.2998,2.21436-3.25439,3.32178-5.86426,3.32178-2.11279,0-3.81641-.771-5.10986-2.31348-1.29395-1.54248-1.94092-3.61279-1.94092-6.21143,0-2.94922.69531-5.29346,2.08496-7.03369,1.38965-1.73975,3.29883-2.61035,5.72852-2.61035,2.29346,0,3.99414.93799,5.10156,2.81348h.06787v-2.40674h3.93164v15.96582ZM416.20116,191.86134v-2.25439c0-1.22021-.4043-2.2627-1.21191-3.12695s-1.81641-1.29639-3.02539-1.29639c-1.49121,0-2.6582.55078-3.49951,1.65234-.8418,1.10156-1.2627,2.6416-1.2627,4.61865,0,1.70605.40381,3.07031,1.21191,4.09277.80762,1.02295,1.87793,1.53418,3.21143,1.53418,1.35596,0,2.45752-.48877,3.30518-1.46631.84717-.97705,1.271-2.22852,1.271-3.75391Z"></path><path class="cls-9" d="M439.91209,192.20021h-11.83008c.04541,1.60449.53955,2.8418,1.4834,3.71191.94287.87012,2.23975,1.30469,3.88965,1.30469,1.85254,0,3.55322-.55322,5.10107-1.66064v3.16943c-1.58203.99414-3.67188,1.49121-6.27051,1.49121-2.55371,0-4.55664-.78809-6.0083-2.36426-1.45215-1.57617-2.17822-3.79346-2.17822-6.65234,0-2.7002.79932-4.90088,2.39844-6.60156,1.59863-1.7002,3.58447-2.55078,5.95752-2.55078,2.37256,0,4.2085.7627,5.5083,2.28809,1.29883,1.52539,1.94873,3.64404,1.94873,6.35596v1.5083ZM436.11571,189.42042c-.01123-1.41211-.34473-2.51074-1-3.29639-.65527-.78516-1.55908-1.17773-2.71143-1.17773-1.13037,0-2.08789.4126-2.87305,1.2373-.78564.82471-1.26855,1.90381-1.44922,3.23682h8.03369Z"></path><path class="cls-9" d="M453.72508,186.20069c-.47461-.37305-1.1582-.55957-2.05078-.55957-1.16357,0-2.13525.52539-2.91504,1.57617s-1.16943,2.48047-1.16943,4.28809v8.30469h-3.93213v-17.35547h3.93213v3.57617h.06787c.38379-1.22021.97461-2.17188,1.771-2.85547.79688-.68359,1.68652-1.02539,2.66943-1.02539.71191,0,1.25439.10742,1.62695.32178v3.729Z"></path><path class="cls-9" d="M455.64061,199.26759v-3.64355c1.46875,1.11816,3.09033,1.67773,4.86426,1.67773,2.37256,0,3.55908-.70068,3.55908-2.10156,0-.39551-.10156-.73145-.30518-1.00879-.20312-.27637-.47754-.52246-.82178-.73682-.34473-.21484-.75195-.40674-1.22021-.57666-.46924-.16943-.9917-.36133-1.56787-.57617-.71191-.28223-1.35352-.58154-1.92383-.89795-.5708-.31641-1.04541-.67529-1.42383-1.07666-.37842-.40088-.66357-.85547-.85547-1.36426-.19238-.5083-.28809-1.10156-.28809-1.7793,0-.83594.19727-1.57324.59277-2.21191.39551-.63818.92676-1.1748,1.59326-1.61035.6665-.43457,1.42383-.76221,2.271-.98291.84766-.22021,1.72314-.33057,2.62695-.33057,1.60449,0,3.03955.24316,4.30518.729v3.44043c-1.22021-.83594-2.62158-1.25391-4.20312-1.25391-.49756,0-.94678.05078-1.34766.15234s-.74316.24316-1.02539.42383-.50293.39795-.66064.65234c-.15869.25439-.2373.53418-.2373.83887,0,.37305.07861.68945.2373.94922.15771.26025.39209.48877.70312.68652.31055.19775.68359.37842,1.11865.54248.43457.16357.93457.3418,1.5.53369.74561.30518,1.41504.61572,2.0083.93213s1.09863.67529,1.51709,1.07617c.41748.40137.73975.86426.96582,1.38965s.33887,1.1499.33887,1.87305c0,.88135-.20312,1.6499-.60986,2.30518s-.94922,1.19775-1.62695,1.62695c-.67822.4292-1.46094.74854-2.34766.95752-.88721.20898-1.82178.31348-2.80469.31348-1.89844,0-3.54248-.31641-4.93213-.94922Z"></path></g><g><path class="cls-9" d="M309.75682,272.15138l-6.66113,24.3042h-4.55908l-4.62695-16.99951c-.19189-.72266-.31055-1.51367-.35596-2.37256h-.06738c-.05664.80225-.19238,1.58203-.40674,2.33887l-4.64404,17.0332h-4.66064l-6.79639-24.3042h4.42334l4.40674,17.7959c.18066.74561.29346,1.52539.33887,2.33887h.08496c.04492-.57617.20312-1.35596.47412-2.33887l4.98291-17.7959h4.15234l4.61035,17.93164c.15771.60986.27637,1.3335.35596,2.16943h.06738c.03418-.56494.16406-1.31055.39014-2.2373l4.32178-17.86377h4.16943Z"></path><path class="cls-9" d="M328.1118,296.45558h-3.93213v-9.49121c0-3.43457-1.14697-5.15234-3.44043-5.15234-1.15283,0-2.12451.49756-2.91504,1.4917-.79102.99414-1.18652,2.26514-1.18652,3.81348v9.33838h-3.94922v-25.69385h3.94922v11.21973h.06787c1.31055-2.19189,3.18604-3.28809,5.62695-3.28809,3.85254,0,5.7793,2.35596,5.7793,7.06787v10.69434Z"></path><path class="cls-9" d="M340.58592,296.86231c-2.67773,0-4.81641-.81055-6.41504-2.43213-1.59912-1.62109-2.39844-3.771-2.39844-6.44873,0-2.91504.8335-5.19189,2.5-6.83057,1.6665-1.63818,3.91211-2.45752,6.7373-2.45752,2.71143,0,4.82422.79688,6.33838,2.39014,1.51416,1.59277,2.27148,3.80225,2.27148,6.62646,0,2.76855-.81689,4.98584-2.44922,6.65234-1.63281,1.66699-3.82764,2.5-6.58447,2.5ZM340.77244,281.82911c-1.53711,0-2.75146.53662-3.64404,1.60986-.89258,1.07373-1.33887,2.55371-1.33887,4.44092,0,1.81885.45166,3.25098,1.35596,4.29639.90381,1.04492,2.1123,1.56738,3.62695,1.56738,1.54785,0,2.73682-.51367,3.56738-1.54199s1.24561-2.4917,1.24561-4.38965c0-1.90967-.41504-3.38379-1.24561-4.42383-.83057-1.03906-2.01953-1.55908-3.56738-1.55908Z"></path><path class="cls-9" d="M357.56834,296.45558h-3.94922v-25.69385h3.94922v25.69385Z"></path><path class="cls-9" d="M377.38084,288.84571h-11.83008c.04541,1.60449.53955,2.8418,1.4834,3.71191.94287.87012,2.23975,1.30469,3.88965,1.30469,1.85254,0,3.55322-.55322,5.10107-1.66064v3.16943c-1.58203.99414-3.67188,1.49121-6.27051,1.49121-2.55371,0-4.55664-.78809-6.0083-2.36426-1.45215-1.57617-2.17822-3.79346-2.17822-6.65234,0-2.7002.79932-4.90088,2.39844-6.60156,1.59863-1.7002,3.58447-2.55078,5.95752-2.55078,2.37256,0,4.2085.7627,5.5083,2.28809,1.29883,1.52539,1.94873,3.64404,1.94873,6.35596v1.5083ZM373.58446,286.06593c-.01123-1.41211-.34473-2.51074-1-3.29639-.65527-.78516-1.55908-1.17773-2.71143-1.17773-1.13037,0-2.08789.4126-2.87305,1.2373-.78564.82471-1.26855,1.90381-1.44922,3.23682h8.03369Z"></path><path class="cls-9" d="M411.71873,296.45558h-4.40674l-11.60986-17.86377c-.29395-.45166-.53662-.9209-.72852-1.40674h-.10205c.09033.52002.13574,1.63281.13574,3.33887v15.93164h-3.89795v-24.3042h4.69482l11.21973,17.43994c.47461.72314.77979,1.22021.91504,1.4917h.06787c-.11328-.64404-.16943-1.73438-.16943-3.271v-15.66064h3.88135v24.3042Z"></path><path class="cls-9" d="M432.42967,296.45558h-3.93213v-2.74561h-.06787c-1.14111,2.10156-2.91504,3.15234-5.32178,3.15234-4.10156,0-6.15234-2.46289-6.15234-7.38965v-10.37256h3.93213v9.96582c0,3.11865,1.20312,4.67773,3.60986,4.67773,1.16357,0,2.12109-.4292,2.87305-1.28809.75098-.8584,1.12695-1.98291,1.12695-3.37256v-9.98291h3.93213v17.35547Z"></path><path class="cls-9" d="M463.49608,296.45558h-3.93213v-9.45703c0-1.81934-.25684-3.13574-.771-3.94922s-1.38135-1.22021-2.60156-1.22021c-1.02832,0-1.90137.51416-2.61865,1.54248-.71777,1.02783-1.07617,2.25977-1.07617,3.69434v9.38965h-3.94922v-9.7793c0-3.23145-1.14111-4.84717-3.42334-4.84717-1.0625,0-1.93506.48584-2.61865,1.45752s-1.02539,2.23145-1.02539,3.7793v9.38965h-3.93213v-17.35547h3.93213v2.74609h.06787c1.25439-2.10205,3.07861-3.15283,5.47412-3.15283,1.19775,0,2.24609.33057,3.14404.9917.89844.66113,1.51123,1.52832,1.83887,2.60156,1.28809-2.39551,3.20898-3.59326,5.7627-3.59326,3.81885,0,5.72852,2.35596,5.72852,7.06787v10.69434Z"></path><path class="cls-9" d="M472.29246,293.94728h-.06787v2.5083h-3.93213v-25.69385h3.93213v11.38916h.06787c1.34424-2.30469,3.31055-3.45752,5.89795-3.45752,2.19189,0,3.90674.77734,5.14404,2.33057,1.2373,1.55371,1.85596,3.63574,1.85596,6.24561,0,2.90381-.69531,5.22852-2.08496,6.97412s-3.28809,2.61865-5.69434,2.61865c-2.26025,0-3.96631-.97168-5.11865-2.91504ZM472.1909,287.04933v2.15234c0,1.26562.40381,2.33887,1.21143,3.22021.80811.88135,1.8335,1.32178,3.07617,1.32178,1.45801,0,2.60156-.56738,3.43213-1.70312s1.24609-2.72021,1.24609-4.75391c0-1.70605-.38721-3.04248-1.16113-4.0083-.77393-.96631-1.82227-1.44922-3.14404-1.44922-1.40137,0-2.52832.49707-3.38135,1.49121-.85303.99463-1.2793,2.2373-1.2793,3.729Z"></path><path class="cls-9" d="M503.90135,288.84571h-11.83008c.04541,1.60449.53955,2.8418,1.4834,3.71191.94287.87012,2.23975,1.30469,3.88965,1.30469,1.85254,0,3.55322-.55322,5.10107-1.66064v3.16943c-1.58203.99414-3.67188,1.49121-6.27051,1.49121-2.55371,0-4.55664-.78809-6.0083-2.36426-1.45215-1.57617-2.17822-3.79346-2.17822-6.65234,0-2.7002.79932-4.90088,2.39844-6.60156,1.59863-1.7002,3.58447-2.55078,5.95752-2.55078,2.37256,0,4.2085.7627,5.5083,2.28809,1.29883,1.52539,1.94873,3.64404,1.94873,6.35596v1.5083ZM500.10496,286.06593c-.01123-1.41211-.34473-2.51074-1-3.29639-.65527-.78516-1.55908-1.17773-2.71143-1.17773-1.13037,0-2.08789.4126-2.87305,1.2373-.78564.82471-1.26855,1.90381-1.44922,3.23682h8.03369Z"></path><path class="cls-9" d="M517.71434,282.8462c-.47461-.37305-1.1582-.55957-2.05078-.55957-1.16357,0-2.13525.52539-2.91504,1.57617s-1.16943,2.48047-1.16943,4.28809v8.30469h-3.93213v-17.35547h3.93213v3.57617h.06787c.38379-1.22021.97461-2.17188,1.771-2.85547.79688-.68359,1.68652-1.02539,2.66943-1.02539.71191,0,1.25439.10742,1.62695.32178v3.729Z"></path><path class="cls-9" d="M519.62938,295.9131v-3.64355c1.46875,1.11816,3.09033,1.67773,4.86426,1.67773,2.37256,0,3.55908-.70068,3.55908-2.10156,0-.39551-.10156-.73145-.30518-1.00879-.20312-.27637-.47754-.52246-.82178-.73682-.34473-.21484-.75195-.40674-1.22021-.57666-.46924-.16943-.9917-.36133-1.56787-.57617-.71191-.28223-1.35352-.58154-1.92383-.89795-.5708-.31641-1.04541-.67529-1.42383-1.07666-.37842-.40088-.66357-.85547-.85547-1.36426-.19238-.5083-.28809-1.10156-.28809-1.7793,0-.83594.19727-1.57324.59277-2.21191.39551-.63818.92676-1.1748,1.59326-1.61035.6665-.43457,1.42383-.76221,2.271-.98291.84766-.22021,1.72314-.33057,2.62695-.33057,1.60449,0,3.03955.24316,4.30518.729v3.44043c-1.22021-.83594-2.62158-1.25391-4.20312-1.25391-.49756,0-.94678.05078-1.34766.15234s-.74316.24316-1.02539.42383-.50293.39795-.66064.65234c-.15869.25439-.2373.53418-.2373.83887,0,.37305.07861.68945.2373.94922.15771.26025.39209.48877.70312.68652.31055.19775.68359.37842,1.11865.54248.43457.16357.93457.3418,1.5.53369.74561.30518,1.41504.61572,2.0083.93213s1.09863.67529,1.51709,1.07617c.41748.40137.73975.86426.96582,1.38965s.33887,1.1499.33887,1.87305c0,.88135-.20312,1.6499-.60986,2.30518s-.94922,1.19775-1.62695,1.62695c-.67822.4292-1.46094.74854-2.34766.95752-.88721.20898-1.82178.31348-2.80469.31348-1.89844,0-3.54248-.31641-4.93213-.94922Z"></path></g><g><path class="cls-9" d="M292.40965,398.31398h-4.40674l-11.60986-17.86377c-.29395-.45166-.53662-.9209-.72852-1.40674h-.10205c.09033.52002.13574,1.63281.13574,3.33887v15.93164h-3.89795v-24.3042h4.69482l11.21973,17.43994c.47461.72314.77979,1.22021.91504,1.4917h.06787c-.11328-.64404-.16943-1.73438-.16943-3.271v-15.66064h3.88135v24.3042Z"></path><path class="cls-9" d="M311.30711,398.31398h-3.81348v-2.71191h-.06787c-1.19775,2.0791-2.95508,3.11865-5.271,3.11865-1.70605,0-3.04199-.46338-4.0083-1.38965-.96582-.92627-1.44922-2.15234-1.44922-3.67773,0-3.27686,1.88721-5.18652,5.66113-5.729l5.15234-.72852c0-2.47461-1.17529-3.71191-3.52539-3.71191-2.06787,0-3.93213.71191-5.59326,2.13574v-3.44043c1.83057-1.08496,3.94336-1.62744,6.33887-1.62744,4.38379,0,6.57617,2.15869,6.57617,6.47461v11.2876ZM307.51073,389.78907l-3.64404.5083c-1.12988.14697-1.98047.4209-2.55078.82178-.5708.40137-.85596,1.10498-.85596,2.11035,0,.73438.2627,1.33643.78809,1.80518s1.229.70312,2.10986.70312c1.19775,0,2.18945-.4209,2.97461-1.2627s1.17822-1.90088,1.17822-3.17773v-1.5083Z"></path><path class="cls-9" d="M325.25584,398.12745c-.76855.38428-1.77979.57617-3.03369.57617-3.36719,0-5.05078-1.61572-5.05078-4.84717v-9.81299h-2.89795v-3.08496h2.89795v-4.0166l3.93213-1.11865v5.13525h4.15234v3.08496h-4.15234v8.67773c0,1.02783.18652,1.76221.55908,2.20312.37305.44043.99414.66113,1.86426.66113.66699,0,1.24316-.19238,1.729-.57666v3.11865Z"></path><path class="cls-9" d="M343.78026,398.31398h-3.93213v-2.74561h-.06787c-1.14111,2.10156-2.91504,3.15234-5.32178,3.15234-4.10156,0-6.15234-2.46289-6.15234-7.38965v-10.37256h3.93213v9.96582c0,3.11865,1.20312,4.67773,3.60986,4.67773,1.16357,0,2.12109-.4292,2.87305-1.28809.75098-.8584,1.12695-1.98291,1.12695-3.37256v-9.98291h3.93213v17.35547Z"></path><path class="cls-9" d="M358.9658,384.7046c-.47461-.37305-1.1582-.55957-2.05078-.55957-1.16357,0-2.13525.52539-2.91504,1.57617s-1.16943,2.48047-1.16943,4.28809v8.30469h-3.93213v-17.35547h3.93213v3.57617h.06787c.38379-1.22021.97461-2.17188,1.771-2.85547.79688-.68359,1.68652-1.02539,2.66943-1.02539.71191,0,1.25439.10742,1.62695.32178v3.729Z"></path><path class="cls-9" d="M375.06737,398.31398h-3.81348v-2.71191h-.06787c-1.19775,2.0791-2.95508,3.11865-5.271,3.11865-1.70605,0-3.04199-.46338-4.0083-1.38965-.96582-.92627-1.44922-2.15234-1.44922-3.67773,0-3.27686,1.88721-5.18652,5.66113-5.729l5.15234-.72852c0-2.47461-1.17529-3.71191-3.52539-3.71191-2.06787,0-3.93213.71191-5.59326,2.13574v-3.44043c1.83057-1.08496,3.94336-1.62744,6.33887-1.62744,4.38379,0,6.57617,2.15869,6.57617,6.47461v11.2876ZM371.27098,389.78907l-3.64404.5083c-1.12988.14697-1.98047.4209-2.55078.82178-.5708.40137-.85596,1.10498-.85596,2.11035,0,.73438.2627,1.33643.78809,1.80518s1.229.70312,2.10986.70312c1.19775,0,2.18945-.4209,2.97461-1.2627s1.17822-1.90088,1.17822-3.17773v-1.5083Z"></path><path class="cls-9" d="M383.81248,398.31398h-3.94922v-25.69385h3.94922v25.69385Z"></path><path class="cls-9" d="M419.52293,398.31398h-4.40674l-11.60986-17.86377c-.29395-.45166-.53662-.9209-.72852-1.40674h-.10205c.09033.52002.13574,1.63281.13574,3.33887v15.93164h-3.89795v-24.3042h4.69482l11.21973,17.43994c.47461.72314.77979,1.22021.91504,1.4917h.06787c-.11328-.64404-.16943-1.73438-.16943-3.271v-15.66064h3.88135v24.3042Z"></path><path class="cls-9" d="M440.23387,398.31398h-3.93213v-2.74561h-.06787c-1.14111,2.10156-2.91504,3.15234-5.32178,3.15234-4.10156,0-6.15234-2.46289-6.15234-7.38965v-10.37256h3.93213v9.96582c0,3.11865,1.20312,4.67773,3.60986,4.67773,1.16357,0,2.12109-.4292,2.87305-1.28809.75098-.8584,1.12695-1.98291,1.12695-3.37256v-9.98291h3.93213v17.35547Z"></path><path class="cls-9" d="M471.30077,398.31398h-3.93213v-9.45703c0-1.81934-.25684-3.13574-.771-3.94922s-1.38135-1.22021-2.60156-1.22021c-1.02832,0-1.90137.51416-2.61865,1.54248-.71777,1.02783-1.07617,2.25977-1.07617,3.69434v9.38965h-3.94922v-9.7793c0-3.23145-1.14111-4.84717-3.42334-4.84717-1.0625,0-1.93506.48584-2.61865,1.45752s-1.02539,2.23145-1.02539,3.7793v9.38965h-3.93213v-17.35547h3.93213v2.74609h.06787c1.25439-2.10205,3.07861-3.15283,5.47412-3.15283,1.19775,0,2.24609.33057,3.14404.9917.89844.66113,1.51123,1.52832,1.83887,2.60156,1.28809-2.39551,3.20898-3.59326,5.7627-3.59326,3.81885,0,5.72852,2.35596,5.72852,7.06787v10.69434Z"></path><path class="cls-9" d="M480.09666,395.80567h-.06787v2.5083h-3.93213v-25.69385h3.93213v11.38916h.06787c1.34424-2.30469,3.31055-3.45752,5.89795-3.45752,2.19189,0,3.90674.77734,5.14404,2.33057,1.2373,1.55371,1.85596,3.63574,1.85596,6.24561,0,2.90381-.69531,5.22852-2.08496,6.97412s-3.28809,2.61865-5.69434,2.61865c-2.26025,0-3.96631-.97168-5.11865-2.91504ZM479.9951,388.90773v2.15234c0,1.26562.40381,2.33887,1.21143,3.22021.80811.88135,1.8335,1.32178,3.07617,1.32178,1.45801,0,2.60156-.56738,3.43213-1.70312s1.24609-2.72021,1.24609-4.75391c0-1.70605-.38721-3.04248-1.16113-4.0083-.77393-.96631-1.82227-1.44922-3.14404-1.44922-1.40137,0-2.52832.49707-3.38135,1.49121-.85303.99463-1.2793,2.2373-1.2793,3.729Z"></path><path class="cls-9" d="M511.70555,390.70411h-11.83008c.04541,1.60449.53955,2.8418,1.4834,3.71191.94287.87012,2.23975,1.30469,3.88965,1.30469,1.85254,0,3.55322-.55322,5.10107-1.66064v3.16943c-1.58203.99414-3.67188,1.49121-6.27051,1.49121-2.55371,0-4.55664-.78809-6.0083-2.36426-1.45215-1.57617-2.17822-3.79346-2.17822-6.65234,0-2.7002.79932-4.90088,2.39844-6.60156,1.59863-1.7002,3.58447-2.55078,5.95752-2.55078,2.37256,0,4.2085.7627,5.5083,2.28809,1.29883,1.52539,1.94873,3.64404,1.94873,6.35596v1.5083ZM507.90916,387.92433c-.01123-1.41211-.34473-2.51074-1-3.29639-.65527-.78516-1.55908-1.17773-2.71143-1.17773-1.13037,0-2.08789.4126-2.87305,1.2373-.78564.82471-1.26855,1.90381-1.44922,3.23682h8.03369Z"></path><path class="cls-9" d="M525.51854,384.7046c-.47461-.37305-1.1582-.55957-2.05078-.55957-1.16357,0-2.13525.52539-2.91504,1.57617s-1.16943,2.48047-1.16943,4.28809v8.30469h-3.93213v-17.35547h3.93213v3.57617h.06787c.38379-1.22021.97461-2.17188,1.771-2.85547.79688-.68359,1.68652-1.02539,2.66943-1.02539.71191,0,1.25439.10742,1.62695.32178v3.729Z"></path><path class="cls-9" d="M527.43407,397.77149v-3.64355c1.46875,1.11816,3.09033,1.67773,4.86426,1.67773,2.37256,0,3.55908-.70068,3.55908-2.10156,0-.39551-.10156-.73145-.30518-1.00879-.20312-.27637-.47754-.52246-.82178-.73682-.34473-.21484-.75195-.40674-1.22021-.57666-.46924-.16943-.9917-.36133-1.56787-.57617-.71191-.28223-1.35352-.58154-1.92383-.89795-.5708-.31641-1.04541-.67529-1.42383-1.07666-.37842-.40088-.66357-.85547-.85547-1.36426-.19238-.5083-.28809-1.10156-.28809-1.7793,0-.83594.19727-1.57324.59277-2.21191.39551-.63818.92676-1.1748,1.59326-1.61035.6665-.43457,1.42383-.76221,2.271-.98291.84766-.22021,1.72314-.33057,2.62695-.33057,1.60449,0,3.03955.24316,4.30518.729v3.44043c-1.22021-.83594-2.62158-1.25391-4.20312-1.25391-.49756,0-.94678.05078-1.34766.15234s-.74316.24316-1.02539.42383-.50293.39795-.66064.65234c-.15869.25439-.2373.53418-.2373.83887,0,.37305.07861.68945.2373.94922.15771.26025.39209.48877.70312.68652.31055.19775.68359.37842,1.11865.54248.43457.16357.93457.3418,1.5.53369.74561.30518,1.41504.61572,2.0083.93213s1.09863.67529,1.51709,1.07617c.41748.40137.73975.86426.96582,1.38965s.33887,1.1499.33887,1.87305c0,.88135-.20312,1.6499-.60986,2.30518s-.94922,1.19775-1.62695,1.62695c-.67822.4292-1.46094.74854-2.34766.95752-.88721.20898-1.82178.31348-2.80469.31348-1.89844,0-3.54248-.31641-4.93213-.94922Z"></path></g><path class="cls-9" d="M305.93651,442.10255v27.95215h-4.42334v-22.53711c-.80078.57178-1.66211,1.05811-2.5835,1.4585-.92188.40039-1.97363.75293-3.15576,1.05811v-3.7749c.7373-.2417,1.44922-.49609,2.13574-.7627.68604-.26709,1.36328-.56592,2.03027-.89648.66748-.33008,1.34131-.69873,2.02148-1.10596.67969-.40625,1.38232-.87012,2.10645-1.3916h1.86865Z"></path><path class="cls-9" d="M413.05272,517.54298h-17.16016v-2.11621c0-.86426.12061-1.6748.3623-2.43115.24121-.75635.56543-1.46826.97217-2.13574.40674-.66699.8833-1.29639,1.43018-1.8877.54639-.59082,1.13135-1.16309,1.75439-1.71582.62256-.55322,1.2583-1.08691,1.90625-1.60156.64844-.51514,1.28418-1.03271,1.90674-1.5542.58447-.49561,1.11865-.98193,1.60156-1.4585.4834-.47656.89648-.96924,1.23975-1.47754s.60986-1.04541.80078-1.61133c.19043-.56543.28613-1.17871.28613-1.83984,0-.72461-.11182-1.35693-.33398-1.89746-.22266-.54004-.53369-.99121-.93408-1.35352s-.87402-.63574-1.42041-.81982c-.54688-.18408-1.14404-.27637-1.79248-.27637-1.11865,0-2.25635.26025-3.41309.78174-1.15674.521-2.26904,1.30273-3.33691,2.34521v-4.25195c.55957-.41943,1.125-.78516,1.69727-1.09668.57178-.31104,1.16309-.57178,1.77295-.78174.61035-.20947,1.25195-.36523,1.92578-.4668.67383-.10205,1.39209-.15283,2.15479-.15283,1.23291,0,2.35156.16211,3.35596.48633,1.00391.32422,1.86182.80078,2.57373,1.43018.71191.62891,1.26172,1.41406,1.64941,2.35449.3877.94092.58154,2.021.58154,3.2417,0,1.10547-.13672,2.10059-.40967,2.98389-.27393.8833-.66113,1.70654-1.16309,2.46924-.50244.7627-1.10938,1.4873-1.82129,2.17334-.71191.68652-1.50635,1.39209-2.3833,2.1167-.7373.59766-1.47119,1.1792-2.20215,1.74463s-1.38916,1.11865-1.97363,1.65869c-.58447.54053-1.05811,1.08057-1.42041,1.62061-.3623.54053-.54346,1.08398-.54346,1.63037v.09521h12.33643v3.79443Z"></path><path class="cls-9" d="M499.54686,462.75001v-4.15625c1.7793,1.41064,3.7876,2.11621,6.02539,2.11621,1.81738,0,3.27002-.41309,4.35645-1.23926,1.08691-.82617,1.63037-1.94482,1.63037-3.35596,0-3.10107-2.37061-4.65234-7.11182-4.65234h-2.1167v-3.54639h2.021c4.20752,0,6.31152-1.46143,6.31152-4.38525,0-2.69482-1.63965-4.04248-4.91943-4.04248-1.83057,0-3.55322.65479-5.16699,1.96387v-3.92773c1.85547-1.04199,4.04834-1.56348,6.57812-1.56348,2.42773,0,4.37256.61035,5.83447,1.83057,1.46143,1.22021,2.19238,2.78369,2.19238,4.69043,0,3.59766-1.83008,5.91064-5.49121,6.94043v.07617c1.97021.19092,3.52734.88037,4.67139,2.06885s1.71631,2.67285,1.71631,4.45215c0,2.45361-.92188,4.43311-2.76465,5.93945-1.84326,1.50635-4.271,2.25928-7.28369,2.25928-2.70752,0-4.86865-.48926-6.48291-1.46826Z"></path><path class="cls-9" d="M635.90575,411.77149c-2.84766,0-5.06885-1.16309-6.66357-3.48926-1.5957-2.32617-2.39307-5.68799-2.39307-10.08643,0-4.83008.83252-8.48486,2.49756-10.96338,1.66504-2.479,4.06787-3.71826,7.20752-3.71826,6.01221,0,9.01855,4.67139,9.01855,14.01416,0,4.62744-.84814,8.15771-2.54541,10.5918-1.69678,2.43457-4.0708,3.65137-7.12158,3.65137ZM636.34422,387.04151c-3.31738,0-4.97607,3.65479-4.97607,10.96387,0,6.83838,1.62695,10.25781,4.88086,10.25781,3.20312,0,4.80518-3.47656,4.80518-10.42969,0-7.19434-1.57031-10.79199-4.70996-10.79199Z"></path><g><path class="cls-9" d="M59.4868,539.97804v17.65527h4.06104v3.68066h-4.06104v6.00586h-4.29004v-6.00586h-12.37451v-3.71875c1.11816-1.25781,2.26562-2.62109,3.44141-4.08984,1.17578-1.46777,2.30713-2.96777,3.39404-4.49902,1.08691-1.53223,2.09375-3.06738,3.02197-4.60547.92773-1.53711,1.70947-3.0127,2.34521-4.42285h4.46191ZM55.19676,557.63331v-11.47754c-1.38574,2.49121-2.75537,4.66504-4.10938,6.52051-1.35352,1.85645-2.62158,3.50879-3.80371,4.95703h7.91309Z"></path><path class="cls-9" d="M69.03905,567.73976c-.7627,0-1.41064-.25195-1.94482-.75391-.53369-.50195-.80078-1.10254-.80078-1.80176,0-.71191.26709-1.32129.80078-1.83008.53418-.50879,1.18213-.7627,1.94482-.7627.77539,0,1.43311.25391,1.97363.7627.54004.50879.81006,1.11816.81006,1.83008,0,.69922-.27002,1.2998-.81006,1.80176-.54053.50195-1.19824.75391-1.97363.75391Z"></path><path class="cls-9" d="M76.70409,566.69093v-4.25195c1.79199,1.20703,3.60986,1.81152,5.45312,1.81152,1.85547,0,3.34912-.47363,4.48047-1.4209s1.69727-2.20898,1.69727-3.78516c0-1.55078-.5752-2.75781-1.72559-3.62207-1.15088-.86426-2.7998-1.29688-4.94824-1.29688-.7373,0-2.23047.07617-4.48047.22852l.97217-14.37598h13.46143v3.77539h-9.78125l-.45752,6.84473c.87695-.05078,1.67139-.07617,2.3833-.07617,2.89795,0,5.13867.74316,6.72119,2.23047s2.37354,3.52148,2.37354,6.10156c0,2.70801-.90527,4.87793-2.7168,6.51172-1.81152,1.63281-4.2998,2.4502-7.46484,2.4502-2.66943,0-4.65869-.375-5.96777-1.125Z"></path></g><g><path class="cls-9" d="M629.51219,160.40724c-2.84766,0-5.06885-1.16309-6.66357-3.48926-1.5957-2.32617-2.39307-5.68799-2.39307-10.08643,0-4.83008.83252-8.48486,2.49756-10.96338,1.66504-2.479,4.06787-3.71826,7.20752-3.71826,6.01221,0,9.01855,4.67139,9.01855,14.01416,0,4.62744-.84814,8.15771-2.54541,10.5918-1.69678,2.43457-4.0708,3.65137-7.12158,3.65137ZM629.95067,135.67726c-3.31738,0-4.97607,3.65479-4.97607,10.96387,0,6.83838,1.62695,10.25781,4.88086,10.25781,3.20312,0,4.80518-3.47656,4.80518-10.42969,0-7.19434-1.57031-10.79199-4.70996-10.79199Z"></path><path class="cls-9" d="M645.35692,160.36915c-.7627,0-1.41064-.25098-1.94482-.75293-.53369-.50195-.80078-1.10303-.80078-1.80225,0-.71143.26709-1.32178.80078-1.83008.53418-.5083,1.18213-.7627,1.94482-.7627.77539,0,1.43311.25439,1.97363.7627.54004.5083.81006,1.11865.81006,1.83008,0,.69922-.27002,1.30029-.81006,1.80225-.54053.50195-1.19824.75293-1.97363.75293Z"></path><path class="cls-9" d="M652.4116,158.93898v-4.15625c1.7793,1.41064,3.7876,2.11621,6.02539,2.11621,1.81738,0,3.27002-.41309,4.35645-1.23926,1.08691-.82617,1.63037-1.94482,1.63037-3.35596,0-3.10107-2.37061-4.65234-7.11182-4.65234h-2.1167v-3.54639h2.021c4.20752,0,6.31152-1.46143,6.31152-4.38525,0-2.69482-1.63965-4.04248-4.91943-4.04248-1.83057,0-3.55322.65479-5.16699,1.96387v-3.92773c1.85547-1.04199,4.04834-1.56348,6.57812-1.56348,2.42773,0,4.37256.61035,5.83447,1.83057,1.46143,1.22021,2.19238,2.78369,2.19238,4.69043,0,3.59766-1.83008,5.91064-5.49121,6.94043v.07617c1.97021.19092,3.52734.88037,4.67139,2.06885s1.71631,2.67285,1.71631,4.45215c0,2.45361-.92188,4.43311-2.76465,5.93945-1.84326,1.50635-4.271,2.25928-7.28369,2.25928-2.70752,0-4.86865-.48926-6.48291-1.46826Z"></path></g><g><path class="cls-9" d="M79.81541,397.9546h-10.41064v-3.26074h10.41064v3.26074Z"></path><path class="cls-9" d="M94.07762,379.04005v27.95215h-4.42334v-22.53711c-.80078.57178-1.66211,1.05811-2.5835,1.4585-.92188.40039-1.97363.75293-3.15576,1.05811v-3.7749c.7373-.2417,1.44922-.49609,2.13574-.7627.68604-.26709,1.36328-.56592,2.03027-.89648.66748-.33008,1.34131-.69873,2.02148-1.10596.67969-.40625,1.38232-.87012,2.10645-1.3916h1.86865Z"></path></g><g><path class="cls-9" d="M680.45067,294.01368h-10.41064v-3.26074h10.41064v3.26074Z"></path><path class="cls-9" d="M702.01561,303.05128h-17.16016v-2.11621c0-.86426.12061-1.6748.3623-2.43115.24121-.75635.56543-1.46826.97217-2.13574.40674-.66699.8833-1.29639,1.43018-1.8877.54639-.59082,1.13135-1.16309,1.75439-1.71582.62256-.55322,1.2583-1.08691,1.90625-1.60156.64844-.51514,1.28418-1.03271,1.90674-1.5542.58447-.49561,1.11865-.98193,1.60156-1.4585.4834-.47656.89648-.96924,1.23975-1.47754s.60986-1.04541.80078-1.61133c.19043-.56543.28613-1.17871.28613-1.83984,0-.72461-.11182-1.35693-.33398-1.89746-.22266-.54004-.53369-.99121-.93408-1.35352s-.87402-.63574-1.42041-.81982c-.54688-.18408-1.14404-.27637-1.79248-.27637-1.11865,0-2.25635.26025-3.41309.78174-1.15674.521-2.26904,1.30273-3.33691,2.34521v-4.25195c.55957-.41943,1.125-.78516,1.69727-1.09668.57178-.31104,1.16309-.57178,1.77295-.78174.61035-.20947,1.25195-.36523,1.92578-.4668.67383-.10205,1.39209-.15283,2.15479-.15283,1.23291,0,2.35156.16211,3.35596.48633,1.00391.32422,1.86182.80078,2.57373,1.43018.71191.62891,1.26172,1.41406,1.64941,2.35449.3877.94092.58154,2.021.58154,3.2417,0,1.10547-.13672,2.10059-.40967,2.98389-.27393.8833-.66113,1.70654-1.16309,2.46924-.50244.7627-1.10938,1.4873-1.82129,2.17334-.71191.68652-1.50635,1.39209-2.3833,2.1167-.7373.59766-1.47119,1.1792-2.20215,1.74463s-1.38916,1.11865-1.97363,1.65869c-.58447.54053-1.05811,1.08057-1.42041,1.62061-.3623.54053-.54346,1.08398-.54346,1.63037v.09521h12.33643v3.79443Z"></path></g><g><path class="cls-9" d="M182.67918,247.60548h-10.41064v-3.26074h10.41064v3.26074Z"></path><path class="cls-9" d="M187.56053,255.63233v-4.15625c1.7793,1.41064,3.7876,2.11621,6.02539,2.11621,1.81738,0,3.27002-.41309,4.35645-1.23926,1.08691-.82617,1.63037-1.94482,1.63037-3.35596,0-3.10107-2.37061-4.65234-7.11182-4.65234h-2.1167v-3.54639h2.021c4.20752,0,6.31152-1.46143,6.31152-4.38525,0-2.69482-1.63965-4.04248-4.91943-4.04248-1.83057,0-3.55322.65479-5.16699,1.96387v-3.92773c1.85547-1.04199,4.04834-1.56348,6.57812-1.56348,2.42773,0,4.37256.61035,5.83447,1.83057,1.46143,1.22021,2.19238,2.78369,2.19238,4.69043,0,3.59766-1.83008,5.91064-5.49121,6.94043v.07617c1.97021.19092,3.52734.88037,4.67139,2.06885s1.71631,2.67285,1.71631,4.45215c0,2.45361-.92188,4.43311-2.76465,5.93945-1.84326,1.50635-4.271,2.25928-7.28369,2.25928-2.70752,0-4.86865-.48926-6.48291-1.46826Z"></path></g><path class="cls-9" d="M669.99608,126.30909h-19.52441v-3.26074h19.52441v3.26074Z"></path><path class="cls-9" d="M1081.37157,322.01612h-19.52441v-3.26074h19.52441v3.26074Z"></path><path class="cls-9" d="M732.35985,203.42335h-19.52441v-3.26074h19.52441v3.26074Z"></path><g><path class="cls-9" d="M743.92918,550.0005v-3.30762c1.39404.93945,2.80762,1.40918,4.24121,1.40918,1.44336,0,2.60498-.36816,3.48486-1.10449s1.31982-1.71777,1.31982-2.94434c0-1.20605-.44727-2.14453-1.3418-2.81738-.89502-.67188-2.17773-1.00879-3.84863-1.00879-.57324,0-1.73486.05957-3.48486.17871l.75635-11.18164h10.46973v2.93555h-7.60742l-.35596,5.32422c.68213-.03906,1.2998-.05957,1.85352-.05957,2.25439,0,3.99658.5791,5.22754,1.73535,1.23096,1.15723,1.84619,2.73828,1.84619,4.74512,0,2.10645-.7041,3.79492-2.11328,5.06445-1.40869,1.27051-3.34375,1.90625-5.80566,1.90625-2.07617,0-3.62354-.29199-4.6416-.875Z"></path><path class="cls-9" d="M757.1118,572.36085c0,2.12598-.22998,3.95508-.68945,5.4873-.45996,1.53223-1.09277,2.79297-1.89844,3.78125-.80566.98926-1.75,1.71875-2.83252,2.1875-1.08252.46973-2.24658.70508-3.49219.70508-.40576,0-.81348-.02539-1.22363-.07422-.41016-.0498-.80078-.11426-1.17139-.19336-.37109-.0791-.70703-.16504-1.00879-.25879-.30127-.09473-.55127-.18555-.74854-.27441v-3.09961c.20752.12793.46436.25977.771.39258.30615.13379.64014.25195,1.00098.35645.36084.10352.73633.1875,1.12695.25195s.76855.09668,1.13477.09668c.84033,0,1.604-.16406,2.29102-.49023s1.27295-.81055,1.75732-1.45312.85791-1.44043,1.11963-2.39453c.26221-.9541.39307-2.05957.39307-3.31445h-.05908c-.17822.31641-.41309.61523-.70459.89648-.2915.28223-.62549.5293-1.00098.74219-.37598.21191-.79346.38281-1.25293.51172-.45996.12793-.95166.19238-1.47559.19238-.89014,0-1.71826-.15527-2.48438-.4668s-1.43115-.75391-1.99463-1.32715c-.56348-.57422-1.00586-1.27051-1.32715-2.0918-.32129-.82031-.48193-1.73438-.48193-2.74316,0-1.10742.18262-2.1084.54883-3.00293.36572-.89453.86963-1.65625,1.5127-2.28418.64258-.62793,1.39893-1.1123,2.26855-1.45312.87012-.34082,1.81445-.51172,2.83252-.51172.95898,0,1.86621.18066,2.72168.54102.85498.36133,1.60645.93457,2.25391,1.7207s1.16162,1.80176,1.54248,3.04785c.38037,1.24512.5708,2.75293.5708,4.52246ZM753.52293,570.0923c0-.71191-.09131-1.35938-.27441-1.94336-.18311-.58301-.4375-1.08203-.76367-1.49707s-.71436-.73633-1.16406-.96387c-.4502-.22754-.94189-.3418-1.47559-.3418-.47461,0-.92676.09668-1.35693.28906-.43018.19336-.80615.46777-1.12695.82324-.32129.35645-.57617.78613-.76367,1.29004-.18799.50488-.28174,1.06348-.28174,1.67578,0,.67285.09131,1.26562.27393,1.78027.18311.51367.4375.94629.76416,1.29785.32617.35059.71924.61719,1.17871.80078.45996.18262.96631.27441,1.52002.27441.49414,0,.95166-.0918,1.37207-.27441.41992-.18359.78564-.43066,1.09717-.74219s.55615-.67969.73389-1.10449c.17822-.4248.26709-.87988.26709-1.36426Z"></path><line class="cls-2" x1="732.89588" y1="556.14698" x2="767.22491" y2="556.14698"></line></g><g><g><path class="cls-9" d="M755.0825,174.15919v21.74072h-3.44092v-17.52881c-.62256.44482-1.29248.82275-2.00928,1.13428s-1.53467.58594-2.45459.82324v-2.93652c.57373-.1875,1.12744-.38525,1.66113-.59326.53369-.20752,1.06055-.43945,1.57959-.69678.51904-.25684,1.04297-.54346,1.57178-.86035.52881-.31592,1.0752-.67676,1.63867-1.08252h1.45361Z"></path><path class="cls-9" d="M766.3828,196.25587c-2.21484,0-3.94287-.90479-5.18311-2.71387-1.24121-1.80908-1.86133-4.42432-1.86133-7.84521,0-3.75684.64746-6.59912,1.94287-8.52686,1.29492-1.92822,3.16357-2.89209,5.60547-2.89209,4.67627,0,7.01465,3.6333,7.01465,10.8999,0,3.59912-.66016,6.34521-1.97998,8.23828s-3.16602,2.83984-5.53857,2.83984ZM766.72362,177.02149c-2.58057,0-3.87061,2.84229-3.87061,8.52734,0,5.31885,1.26562,7.97852,3.79639,7.97852,2.4917,0,3.7373-2.7041,3.7373-8.1123,0-5.5957-1.22119-8.39355-3.66309-8.39355Z"></path></g><g><path class="cls-9" d="M757.40233,207.82032v21.74072h-3.44092v-17.52881c-.62256.44482-1.29248.82275-2.00928,1.13428s-1.53467.58594-2.45459.82324v-2.93652c.57373-.1875,1.12744-.38525,1.66113-.59326.53369-.20752,1.06055-.43945,1.57959-.69678.51904-.25684,1.04297-.54346,1.57178-.86035.52881-.31592,1.0752-.67676,1.63867-1.08252h1.45361Z"></path><path class="cls-9" d="M769.62205,207.82032v21.74072h-3.44092v-17.52881c-.62256.44482-1.29248.82275-2.00928,1.13428s-1.53467.58594-2.45459.82324v-2.93652c.57373-.1875,1.12744-.38525,1.66113-.59326.53369-.20752,1.06055-.43945,1.57959-.69678.51904-.25684,1.04297-.54346,1.57178-.86035.52881-.31592,1.0752-.67676,1.63867-1.08252h1.45361Z"></path></g><line class="cls-2" x1="743.33759" y1="201.55715" x2="777.66662" y2="201.55715"></line></g><g><g><path class="cls-9" d="M74.2661,181.83448h-13.34717v-1.646c0-.67236.09424-1.30273.28174-1.89111.18799-.58789.43994-1.1416.75635-1.66064s.6875-1.00879,1.1123-1.46826c.42529-.45996.87988-.90479,1.36475-1.33496.48389-.42969.97852-.84521,1.48291-1.24561.50391-.40039.99854-.80322,1.48291-1.2085.45459-.38574.86963-.76367,1.24561-1.13428.37549-.37109.69727-.75391.96387-1.14941.26709-.39551.47461-.81299.62305-1.25342.14844-.43945.22217-.9165.22217-1.43115,0-.56348-.08643-1.05518-.25928-1.47559-.17334-.41992-.41553-.771-.72656-1.05273-.31152-.28174-.68018-.49414-1.10498-.6377-.42529-.14307-.88965-.21484-1.39404-.21484-.87012,0-1.75488.20264-2.6543.60791-.8999.40527-1.76514,1.01367-2.5957,1.82422v-3.30713c.43506-.32617.875-.61035,1.32031-.85303.44482-.2417.9043-.44482,1.37891-.60791s.97363-.28418,1.49805-.36328c.52393-.0791,1.08252-.11865,1.67578-.11865.9585,0,1.82861.12598,2.60986.37842.78076.25195,1.44824.62256,2.00195,1.11182.55371.48975.98145,1.1001,1.28271,1.83154.30176.73193.45264,1.57227.45264,2.52148,0,.85986-.10645,1.63379-.31885,2.3208-.21289.68701-.51416,1.32715-.90479,1.92041s-.86279,1.15674-1.41602,1.69043c-.5542.53418-1.17188,1.08252-1.854,1.646-.57324.46484-1.14453.91748-1.71289,1.35693-.56836.44043-1.08008.87012-1.53467,1.29053-.45508.42041-.82324.84033-1.10498,1.26025-.28174.42041-.42285.84326-.42285,1.26807v.07422h9.59521v2.95117Z"></path><path class="cls-9" d="M91.57274,162.28858c-.88965,1.63135-1.72998,3.24561-2.521,4.8418-.79102,1.59717-1.50781,3.20117-2.15039,4.8125-.64258,1.61182-1.20117,3.23535-1.67578,4.87158-.47461,1.63672-.84033,3.30957-1.09766,5.02002h-3.60352c.2373-1.52246.57568-3.04248,1.01611-4.56006.43945-1.51758.95654-3.03516,1.54932-4.55273.59326-1.51758,1.2583-3.04248,1.99463-4.5752.73682-1.53223,1.52051-3.07959,2.35059-4.6416h-10.06934v-2.93652h14.20703v1.72021Z"></path></g><path class="cls-9" d="M81.02049,194.2295v13.73242h3.15869v2.8623h-3.15869v4.67139h-3.33643v-4.67139h-9.625v-2.89209c.87012-.97852,1.76221-2.03906,2.67676-3.18066.91455-1.14209,1.79443-2.30859,2.64014-3.5.84521-1.19141,1.62842-2.38525,2.3501-3.58154.72168-1.1958,1.32959-2.34277,1.82422-3.44043h3.47021ZM77.68407,207.96192v-8.92773c-1.07812,1.93799-2.14307,3.62891-3.19629,5.07227-1.05273,1.44336-2.03906,2.72852-2.9585,3.85547h6.15479Z"></path><line class="cls-2" x1="58.87327" y1="187.49184" x2="93.20231" y2="187.49184"></line></g><path class="cls-9" d="M1116.24657,474.17481c-3.03711,4.55518-6.5293,6.02295-9.76855,6.02295-5.56738,0-7.44043-4.40332-7.44043-8.85742,0-7.28809,5.06152-15.99365,13.26074-15.99365,2.17676,0,5.41602.60742,5.41602,4.55518,0,6.37695-8.50293,9.00928-14.4248,9.46436v.6582c0,5.11182,1.82227,6.68115,5.21289,6.68115,2.53125,0,4.85938-.86084,6.83301-3.29004l.91113.75928ZM1113.3618,459.69923c0-1.82227-.60742-2.78369-2.12598-2.78369-3.74512,0-6.88379,5.97217-7.84473,10.98291,5.61816-.354,9.9707-3.34033,9.9707-8.19922Z"></path><g><path class="cls-9" d="M958.75145,201.6089v27.95215h-4.42383v-22.53711c-.80078.57178-1.66211,1.05811-2.58398,1.4585s-1.97266.75293-3.15527,1.05811v-3.7749c.7373-.2417,1.44922-.49609,2.13574-.7627.68652-.26709,1.36328-.56592,2.03027-.89648.66797-.33008,1.34082-.69873,2.02148-1.10596.67969-.40625,1.38184-.87012,2.10645-1.3916h1.86914Z"></path><path class="cls-9" d="M982.33641,204.43067c-1.14355,2.09717-2.22461,4.17285-3.24121,6.22559s-1.93848,4.11523-2.76465,6.18701c-.82617,2.07227-1.54395,4.16016-2.1543,6.26367-.61035,2.104-1.08105,4.25537-1.41113,6.4541h-4.63379c.30566-1.95752.74121-3.91162,1.30664-5.86328.56543-1.95068,1.22949-3.90186,1.99219-5.85352.7627-1.95117,1.61719-3.91162,2.56445-5.88184s1.95508-3.95947,3.02246-5.96826h-12.94629v-3.77539h18.26562v2.21191Z"></path></g><g><path class="cls-9" d="M1137.42625,306.50294v27.95215h-4.42383v-22.53711c-.80078.57178-1.66211,1.05811-2.58398,1.4585s-1.97266.75293-3.15527,1.05811v-3.7749c.7373-.2417,1.44922-.49609,2.13574-.7627.68652-.26709,1.36328-.56592,2.03027-.89648.66797-.33008,1.34082-.69873,2.02148-1.10596.67969-.40625,1.38184-.87012,2.10645-1.3916h1.86914Z"></path><path class="cls-9" d="M1153.13719,306.50294v27.95215h-4.42383v-22.53711c-.80078.57178-1.66211,1.05811-2.58398,1.4585s-1.97266.75293-3.15527,1.05811v-3.7749c.7373-.2417,1.44922-.49609,2.13574-.7627.68652-.26709,1.36328-.56592,2.03027-.89648.66797-.33008,1.34082-.69873,2.02148-1.10596.67969-.40625,1.38184-.87012,2.10645-1.3916h1.86914Z"></path></g><path class="cls-9" d="M931.98338,380.67335h-17.16016v-2.11621c0-.86426.12061-1.6748.3623-2.43115.24121-.75635.56543-1.46826.97217-2.13574.40674-.66699.8833-1.29639,1.43018-1.8877.54639-.59082,1.13135-1.16309,1.75439-1.71582.62256-.55322,1.2583-1.08691,1.90625-1.60156.64844-.51514,1.28418-1.03271,1.90674-1.5542.58447-.49561,1.11865-.98193,1.60156-1.4585.4834-.47656.89648-.96924,1.23975-1.47754s.60986-1.04541.80078-1.61133c.19043-.56543.28613-1.17871.28613-1.83984,0-.72461-.11182-1.35693-.33398-1.89746-.22266-.54004-.53369-.99121-.93408-1.35352s-.87402-.63574-1.42041-.81982c-.54688-.18408-1.14404-.27637-1.79248-.27637-1.11865,0-2.25635.26025-3.41309.78174-1.15674.521-2.26904,1.30273-3.33691,2.34521v-4.25195c.55957-.41943,1.125-.78516,1.69727-1.09668.57178-.31104,1.16309-.57178,1.77295-.78174.61035-.20947,1.25195-.36523,1.92578-.4668.67383-.10205,1.39209-.15283,2.15479-.15283,1.23291,0,2.35156.16211,3.35596.48633,1.00391.32422,1.86182.80078,2.57373,1.43018.71191.62891,1.26172,1.41406,1.64941,2.35449.3877.94092.58154,2.021.58154,3.2417,0,1.10547-.13672,2.10059-.40967,2.98389-.27393.8833-.66113,1.70654-1.16309,2.46924-.50244.7627-1.10938,1.4873-1.82129,2.17334-.71191.68652-1.50635,1.39209-2.3833,2.1167-.7373.59766-1.47119,1.1792-2.20215,1.74463s-1.38916,1.11865-1.97363,1.65869c-.58447.54053-1.05811,1.08057-1.42041,1.62061-.3623.54053-.54346,1.08398-.54346,1.63037v.09521h12.33643v3.79443Z"></path><path class="cls-9" d="M970.34618,518.813c-.25293,1.26562-1.92383,3.79639-5.31445,3.79639-.75977,0-1.46777,0-2.7334-.05078-.80957,2.42969-3.18848,9.6167-3.18848,13.46338,0,1.36621.35449,3.03613,1.97363,3.03613,1.77148,0,2.68262-.60645,3.54297-1.26465l.6582.86035c-1.66992,2.47949-3.7959,3.94727-6.88379,3.94727-2.42871,0-3.28906-1.77148-3.28906-3.89648,0-4.35352,2.88477-10.57812,4.95996-16.19678-2.48047-.05029-4.75781-.15186-7.23828-.15186-1.16406,5.36523-5.76953,16.34863-7.84473,19.79004h-4.80859v-.70898c2.27783-3.18848,2.88525-3.99805,5.36523-7.84473,2.63184-4.04883,4.09961-6.98438,5.31445-11.28662-5.41602,0-6.5293.05029-8.70557,2.68262l-1.11328-.75928c2.12549-4.4541,5.51709-5.97266,10.32471-5.97266,3.64453,0,6.47852.20264,10.07227.25342,3.1377,0,6.07324-.10156,8.80664-.30371l.10156.60693Z"></path><g><line class="cls-4" x1="1091.63425" y1="314.46141" x2="1103.07726" y2="331.05366"></line><line class="cls-4" x1="1103.07726" y1="331.05366" x2="1118.52533" y2="299.5855"></line><line class="cls-4" x1="1118.52533" y1="299.5855" x2="1168.01635" y2="299.5855"></line></g><line class="cls-4" x1="880.70143" y1="361.7274" x2="892.14444" y2="378.31965"></line><line class="cls-4" x1="892.14444" y1="378.31965" x2="907.5925" y2="346.85149"></line><line class="cls-4" x1="907.5925" y1="346.85149" x2="942.44601" y2="346.85149"></line><g><line class="cls-4" x1="915.55494" y1="208.7725" x2="926.99795" y2="225.36474"></line><line class="cls-4" x1="926.99795" y1="225.36474" x2="942.44601" y2="193.89658"></line><line class="cls-4" x1="942.44601" y1="193.89658" x2="991.93703" y2="193.89658"></line></g><path class="cls-6" d="M7.38148.50971h1198.88511c3.78299,0,6.85429,3.0713,6.85429,6.85429v57.608H.54321V7.34798C.54321,3.57383,3.60734.50971,7.38148.50971Z"></path><g><path class="cls-10" d="M504.36571,47.72853h-7.07373l-4.25195-7.03564c-.31787-.53418-.62305-1.01074-.91504-1.43018-.29248-.41943-.58838-.77832-.88672-1.07715-.29883-.29883-.61035-.52734-.93408-.68652-.32422-.15869-.67725-.23828-1.05859-.23828h-1.65869v10.46777h-6.15869v-27.34229h9.76221c6.63525,0,9.95312,2.479,9.95312,7.43652,0,.95312-.14648,1.8335-.43848,2.64062-.29248.80713-.70557,1.53467-1.23926,2.18311-.53418.64844-1.1792,1.20801-1.93555,1.67773-.75635.4707-1.59863.83936-2.52637,1.10596v.07617c.40674.12744.80078.33398,1.18213.62012.38135.28564.75.61963,1.10596,1.00098s.6958.79102,1.02002,1.22949.61963.86768.88672,1.28711l5.16699,8.08447ZM487.5869,25.0005v7.60791h2.66943c1.32178,0,2.3833-.38135,3.18408-1.14404.81348-.77539,1.22021-1.73535,1.22021-2.87891,0-2.38965-1.42969-3.58496-4.29004-3.58496h-2.78369Z"></path><path class="cls-10" d="M522.89891,39.68214h-12.73682c.20312,2.83496,1.98926,4.25195,5.35791,4.25195,2.14795,0,4.03564-.5083,5.6626-1.52539v4.34717c-1.80469.96631-4.1499,1.44922-7.03564,1.44922-3.15234,0-5.59912-.87354-7.34082-2.62158-1.7417-1.74756-2.61182-4.18506-2.61182-7.31201,0-3.2417.94043-5.80908,2.82178-7.70312,1.88086-1.89404,4.19482-2.84131,6.94043-2.84131,2.84717,0,5.04932.8457,6.60645,2.53613s2.33594,3.98486,2.33594,6.8833v2.53564ZM517.312,35.98341c0-2.79639-1.13135-4.19482-3.39355-4.19482-.96631,0-1.80176.40039-2.50732,1.20117s-1.13477,1.79883-1.28711,2.99365h7.18799Z"></path><path class="cls-10" d="M542.72899,47.72853h-5.70117v-2.80273h-.07617c-1.30957,2.18652-3.24805,3.2793-5.81543,3.2793-1.89453,0-3.38477-.53662-4.47119-1.61084-1.08691-1.07422-1.63037-2.50732-1.63037-4.2998,0-3.7876,2.24316-5.97412,6.73047-6.55908l5.30078-.70557c0-2.13525-1.15674-3.20312-3.47021-3.20312-2.32617,0-4.53809.69287-6.63525,2.07812v-4.5376c.83887-.43213,1.98584-.81348,3.44141-1.14404s2.78076-.49609,3.97559-.49609c5.56738,0,8.35156,2.77783,8.35156,8.33252v11.66895ZM537.0659,39.79689v-1.31592l-3.54639.45752c-1.95801.25439-2.93652,1.1377-2.93652,2.65039,0,.68652.23828,1.24902.71484,1.6875.47705.43848,1.12207.65771,1.93555.65771,1.13135,0,2.05273-.39062,2.76465-1.17236s1.06787-1.77002,1.06787-2.96484Z"></path><path class="cls-10" d="M553.52049,47.72853h-6.0249v-28.90576h6.0249v28.90576Z"></path><path class="cls-10" d="M594.55321,47.72853h-6.21582l-11.26904-17.1792c-.66064-1.00439-1.11865-1.76074-1.37256-2.26904h-.07617c.10156.96582.15234,2.44043.15234,4.42334v15.0249h-5.81543v-27.34229h6.63525l10.84912,16.64551c.49609.75049.95361,1.49414,1.37305,2.23096h.07617c-.10205-.63525-.15234-1.8877-.15234-3.75635v-15.12012h5.81543v27.34229Z"></path><path class="cls-10" d="M618.76756,47.72853h-6.00586v-2.97461h-.09521c-1.4873,2.30078-3.47705,3.45117-5.96826,3.45117-4.52539,0-6.7876-2.73877-6.7876-8.21777v-11.7832h6.00586v11.24951c0,2.7583,1.09326,4.13721,3.27979,4.13721,1.08008,0,1.94482-.37793,2.59277-1.13428.64844-.75635.97266-1.78271.97266-3.07959v-11.17285h6.00586v19.52441Z"></path><path class="cls-10" d="M654.84276,47.72853h-6.00635v-11.13525c0-2.83447-1.04248-4.25195-3.12695-4.25195-.99121,0-1.79883.42627-2.42139,1.27783-.62305.85156-.93457,1.91309-.93457,3.18408v10.92529h-6.0249v-11.24951c0-2.7583-1.02344-4.1377-3.06982-4.1377-1.02979,0-1.85303.40723-2.46924,1.22021-.6167.81396-.9248,1.91992-.9248,3.31787v10.84912h-6.0249v-19.52441h6.0249v3.05029h.07617c.62305-1.04199,1.49707-1.89062,2.62207-2.54541,1.125-.6543,2.35449-.98193,3.68945-.98193,2.75781,0,4.64551,1.21436,5.6626,3.64209,1.4873-2.42773,3.67334-3.64209,6.55908-3.64209,4.24561,0,6.36865,2.61865,6.36865,7.85596v12.14551Z"></path><path class="cls-10" d="M665.71092,45.45948h-.07617v2.26904h-6.0249v-28.90576h6.0249v12.31738h.07617c1.4873-2.27539,3.604-3.41309,6.34961-3.41309,2.5166,0,4.45508.86475,5.81543,2.59326,1.35986,1.729,2.04004,4.09326,2.04004,7.09277,0,3.25439-.79443,5.8667-2.3833,7.83691-1.58936,1.97021-3.71191,2.95508-6.36865,2.95508-2.40234,0-4.22021-.91504-5.45312-2.74561ZM665.53953,37.22267v2.00195c0,1.2583.3623,2.30078,1.08691,3.12695.72461.82666,1.65234,1.23926,2.78369,1.23926,1.37256,0,2.43701-.53027,3.19385-1.5918.75586-1.06152,1.13428-2.56445,1.13428-4.50928,0-1.61426-.34668-2.87598-1.03906-3.78516-.69287-.90869-1.68115-1.36328-2.96484-1.36328-1.20801,0-2.20898.45166-3.00342,1.354s-1.19141,2.07812-1.19141,3.52734Z"></path><path class="cls-10" d="M701.36619,39.68214h-12.73682c.20312,2.83496,1.98926,4.25195,5.35791,4.25195,2.14795,0,4.03564-.5083,5.6626-1.52539v4.34717c-1.80469.96631-4.1499,1.44922-7.03564,1.44922-3.15234,0-5.59912-.87354-7.34082-2.62158-1.7417-1.74756-2.61182-4.18506-2.61182-7.31201,0-3.2417.94043-5.80908,2.82178-7.70312,1.88086-1.89404,4.19482-2.84131,6.94043-2.84131,2.84717,0,5.04932.8457,6.60645,2.53613s2.33594,3.98486,2.33594,6.8833v2.53564ZM695.77928,35.98341c0-2.79639-1.13135-4.19482-3.39355-4.19482-.96631,0-1.80176.40039-2.50732,1.20117s-1.13477,1.79883-1.28711,2.99365h7.18799Z"></path><path class="cls-10" d="M717.68748,33.63819c-.72412-.39404-1.56982-.59131-2.53564-.59131-1.30957,0-2.33301.47998-3.06982,1.43945-.7373.95996-1.10596,2.26611-1.10596,3.91846v9.32373h-6.0249v-19.52441h6.0249v3.62256h.07617c.95361-2.64404,2.66943-3.96582,5.14844-3.96582.63525,0,1.13086.07617,1.48682.22852v5.54883Z"></path><path class="cls-10" d="M719.44188,47.21388v-4.88135c.9917.59766,1.97998,1.04248,2.96484,1.33496.98535.29248,1.9165.43848,2.79346.43848,1.06787,0,1.90967-.146,2.52637-.43848s.9248-.7373.9248-1.33496c0-.38135-.14014-.69873-.41943-.95312-.27979-.25439-.63867-.47705-1.07715-.66748-.43848-.19092-.91846-.3623-1.43994-.51465-.521-.15283-1.02295-.32422-1.50586-.51514-.77588-.29199-1.45898-.60693-2.0498-.94385-.59131-.33643-1.08691-.72754-1.4873-1.17236s-.70557-.95996-.91504-1.54443c-.20996-.58447-.31494-1.27783-.31494-2.07861,0-1.09277.23828-2.0332.71533-2.82178.47656-.78809,1.11182-1.43311,1.90674-1.93506.79395-.50244,1.70312-.87061,2.72656-1.10596,1.02295-.23535,2.0874-.35303,3.19336-.35303.86426,0,1.7417.06689,2.63135.2002.88965.13379,1.7666.32764,2.63135.58154v4.65234c-.7627-.44482-1.57959-.77832-2.4502-1.00098-.87061-.22217-1.72559-.3335-2.56445-.3335-.39404,0-.76611.03516-1.11523.10498-.3501.06982-.6582.17139-.9248.30469-.26709.13379-.47705.30518-.62939.51514-.15234.20947-.229.44775-.229.71484,0,.35596.11475.66113.34326.91553.229.25439.52734.47363.89648.65771.36816.18408.77832.34961,1.22949.49561.45117.14648.89941.29541,1.34424.44824.80078.27979,1.52539.58447,2.17383.91504s1.2041.71826,1.66846,1.16309c.46387.44531.81982.96631,1.06787,1.56348.24756.59766.37158,1.30957.37158,2.13574,0,1.15674-.25098,2.14502-.75293,2.96484-.50244.81982-1.16992,1.4873-2.00244,2.00195s-1.79199.88965-2.87891,1.125c-1.08691.23486-2.21533.35254-3.38428.35254-2.14844,0-4.1377-.33057-5.96826-.99121Z"></path></g></svg> 